<svg width="54" height="23" viewBox="0 0 54 23" fill="none" xmlns="http://www.w3.org/2000/svg">
<path d="M0 0H3.744V17.808H0V0Z" fill="#252B42"/>
<path d="M13.4628 18C12.1028 18 10.8788 17.72 9.79075 17.16C8.71875 16.584 7.87875 15.792 7.27075 14.784C6.66275 13.776 6.35875 12.632 6.35875 11.352C6.35875 10.072 6.66275 8.928 7.27075 7.92C7.87875 6.912 8.71875 6.128 9.79075 5.568C10.8788 4.992 12.1028 4.704 13.4628 4.704C14.8228 4.704 16.0387 4.992 17.1108 5.568C18.1828 6.128 19.0228 6.912 19.6308 7.92C20.2388 8.928 20.5428 10.072 20.5428 11.352C20.5428 12.632 20.2388 13.776 19.6308 14.784C19.0228 15.792 18.1828 16.584 17.1108 17.16C16.0387 17.72 14.8228 18 13.4628 18ZM13.4628 14.928C14.4228 14.928 15.2068 14.608 15.8148 13.968C16.4388 13.312 16.7508 12.44 16.7508 11.352C16.7508 10.264 16.4388 9.4 15.8148 8.76C15.2068 8.104 14.4228 7.776 13.4628 7.776C12.5028 7.776 11.7107 8.104 11.0868 8.76C10.4627 9.4 10.1508 10.264 10.1508 11.352C10.1508 12.44 10.4627 13.312 11.0868 13.968C11.7107 14.608 12.5028 14.928 13.4628 14.928Z" fill="#252B42"/>
<path d="M36.4653 4.896V15.648C36.4653 18.016 35.8493 19.776 34.6173 20.928C33.3853 22.08 31.5853 22.656 29.2173 22.656C27.9693 22.656 26.7853 22.504 25.6653 22.2C24.5453 21.896 23.6173 21.456 22.8813 20.88L24.3693 18.192C24.9133 18.64 25.6013 18.992 26.4333 19.248C27.2653 19.52 28.0973 19.656 28.9293 19.656C30.2253 19.656 31.1773 19.36 31.7853 18.768C32.4093 18.192 32.7213 17.312 32.7213 16.128V15.576C31.7453 16.648 30.3853 17.184 28.6413 17.184C27.4573 17.184 26.3693 16.928 25.3773 16.416C24.4013 15.888 23.6253 15.152 23.0493 14.208C22.4733 13.264 22.1853 12.176 22.1853 10.944C22.1853 9.712 22.4733 8.624 23.0493 7.68C23.6253 6.736 24.4013 6.008 25.3773 5.496C26.3693 4.968 27.4573 4.704 28.6413 4.704C30.5133 4.704 31.9373 5.32 32.9133 6.552V4.896H36.4653ZM29.3853 14.112C30.3773 14.112 31.1853 13.824 31.8093 13.248C32.4493 12.656 32.7693 11.888 32.7693 10.944C32.7693 10 32.4493 9.24 31.8093 8.664C31.1853 8.072 30.3773 7.776 29.3853 7.776C28.3933 7.776 27.5773 8.072 26.9373 8.664C26.2973 9.24 25.9773 10 25.9773 10.944C25.9773 11.888 26.2973 12.656 26.9373 13.248C27.5773 13.824 28.3933 14.112 29.3853 14.112Z" fill="#252B42"/>
<path d="M46.194 18C44.834 18 43.61 17.72 42.522 17.16C41.45 16.584 40.61 15.792 40.002 14.784C39.394 13.776 39.09 12.632 39.09 11.352C39.09 10.072 39.394 8.928 40.002 7.92C40.61 6.912 41.45 6.128 42.522 5.568C43.61 4.992 44.834 4.704 46.194 4.704C47.554 4.704 48.77 4.992 49.842 5.568C50.914 6.128 51.754 6.912 52.362 7.92C52.97 8.928 53.274 10.072 53.274 11.352C53.274 12.632 52.97 13.776 52.362 14.784C51.754 15.792 50.914 16.584 49.842 17.16C48.77 17.72 47.554 18 46.194 18ZM46.194 14.928C47.154 14.928 47.938 14.608 48.546 13.968C49.17 13.312 49.482 12.44 49.482 11.352C49.482 10.264 49.17 9.4 48.546 8.76C47.938 8.104 47.154 7.776 46.194 7.776C45.234 7.776 44.442 8.104 43.818 8.76C43.194 9.4 42.882 10.264 42.882 11.352C42.882 12.44 43.194 13.312 43.818 13.968C44.442 14.608 45.234 14.928 46.194 14.928Z" fill="#252B42"/>
</svg>
